<svg width="39" height="35" viewBox="0 0 39 35" fill="none" xmlns="http://www.w3.org/2000/svg">
<path fill-rule="evenodd" clip-rule="evenodd" d="M34.7526 19.9078L20.8195 33.7072C20.0888 34.4309 18.9114 34.4309 18.1807 33.7072L4.12378 19.7852C3.01366 18.7033 2.13909 17.4036 1.55496 15.9677C1.10005 14.8494 0.828954 13.6673 0.75 12.4671V10.9902C0.842075 9.59042 1.19523 8.21887 1.79258 6.94677C2.45272 5.54098 3.39678 4.28709 4.56532 3.26407C5.73386 2.24105 7.10157 1.47107 8.58231 1.0026C9.46062 0.724723 10.3674 0.556504 11.2822 0.5H12.6693C12.836 0.510297 13.0026 0.524316 13.1691 0.542069C14.7134 0.706808 16.2069 1.18952 17.5554 1.95981C18.2568 2.36039 18.911 2.83424 19.5078 3.37213C20.104 2.84076 20.7566 2.37296 21.4555 1.97777C22.8031 1.21566 24.2936 0.739917 25.8336 0.580326C27.3736 0.420735 28.9299 0.580727 30.4052 1.05029C31.8805 1.51985 33.243 2.28887 34.4075 3.30922C35.5719 4.32958 36.5132 5.5793 37.1724 6.98016C37.8317 8.38103 38.1947 9.90289 38.2387 11.4505C38.2827 12.9981 38.0068 14.5381 37.4283 15.9742C36.8498 17.4103 35.981 18.7115 34.8765 19.7964C34.8365 19.8357 34.7951 19.8729 34.7526 19.9078ZM4.5 12.3314V11.1258C4.48914 11.2605 4.48191 11.3957 4.47834 11.5311C4.47129 11.7986 4.47858 12.0657 4.5 12.3314Z" fill="white"/>
</svg>
